<?xml version="1.0" standalone="no"?>
<!DOCTYPE svg PUBLIC "-//W3C//DTD SVG 20010904//EN"
 "http://www.w3.org/TR/2001/REC-SVG-20010904/DTD/svg10.dtd">
<svg version="1.0" xmlns="http://www.w3.org/2000/svg"
 width="192.000000pt" height="192.000000pt" viewBox="0 0 192.000000 192.000000"
 preserveAspectRatio="xMidYMid meet">
<metadata>
Created by potrace 1.11, written by Peter Selinger 2001-2013
</metadata>
<g transform="translate(0.000000,192.000000) scale(0.100000,-0.100000)"
fill="#000000" stroke="none">
<path d="M920 1872 c0 -4 5 -13 12 -20 9 -9 9 -12 1 -12 -7 0 -15 5 -18 10
-14 23 -25 7 -25 -35 0 -46 7 -54 28 -33 22 22 24 -1 3 -29 -14 -16 -20 -35
-17 -48 4 -16 1 -21 -17 -21 -12 0 -25 3 -28 8 -9 13 -136 20 -144 8 -3 -6
-11 -8 -16 -5 -13 9 -81 -46 -75 -61 3 -7 -1 -15 -9 -17 -15 -6 -17 -75 -3
-93 5 -7 8 -16 7 -20 -4 -22 2 -34 16 -34 8 0 18 -12 21 -27 4 -16 18 -38 31
-50 17 -17 22 -29 17 -47 -4 -18 -1 -28 15 -38 12 -7 21 -16 21 -19 0 -3 -28
-20 -62 -37 -124 -61 -233 -176 -298 -314 -115 -245 -60 -531 139 -720 133
-127 266 -181 446 -181 186 0 318 55 450 187 86 87 129 156 166 271 19 57 23
91 23 185 -1 126 -18 192 -76 303 -59 110 -198 238 -310 286 -41 17 -42 18
-20 30 15 8 22 21 22 41 0 17 9 39 20 50 11 11 20 27 20 35 0 9 12 27 26 40
16 15 24 31 20 40 -3 8 -1 15 3 15 12 0 12 88 0 96 -5 3 -9 14 -9 25 0 11 -8
23 -17 26 -10 4 -23 13 -29 22 -6 8 -18 12 -28 8 -9 -4 -16 -2 -16 2 0 12 -88
12 -95 1 -3 -4 -14 -6 -24 -3 -10 3 -22 0 -25 -5 -10 -16 -45 -2 -39 15 3 8
-4 28 -17 45 -24 33 -22 48 4 23 15 -15 16 -12 16 36 0 45 -2 50 -15 39 -9 -7
-19 -9 -23 -5 -4 4 -1 10 6 12 27 10 9 23 -33 23 -25 0 -45 -4 -45 -8z m55
-22 c-3 -5 -10 -10 -16 -10 -5 0 -9 5 -9 10 0 6 7 10 16 10 8 0 12 -4 9 -10z
m-35 -41 c0 -5 -7 -9 -15 -9 -8 0 -15 7 -15 15 0 9 6 12 15 9 8 -4 15 -10 15
-15z m80 6 c0 -8 -7 -15 -15 -15 -16 0 -20 12 -8 23 11 12 23 8 23 -8z m-45
-35 c3 -5 -1 -10 -9 -10 -9 0 -16 5 -16 10 0 6 4 10 9 10 6 0 13 -4 16 -10z
m-25 -35 c0 -8 -7 -15 -16 -15 -14 0 -14 3 -4 15 7 8 14 15 16 15 2 0 4 -7 4
-15z m50 0 c10 -12 10 -15 -4 -15 -9 0 -16 7 -16 15 0 8 2 15 4 15 2 0 9 -7
16 -15z m-250 -55 c0 -5 -5 -10 -11 -10 -5 0 -7 5 -4 10 3 6 8 10 11 10 2 0 4
-4 4 -10z m50 0 c0 -5 -4 -10 -10 -10 -5 0 -10 5 -10 10 0 6 5 10 10 10 6 0
10 -4 10 -10z m345 0 c3 -5 1 -10 -4 -10 -6 0 -11 5 -11 10 0 6 2 10 4 10 3 0
8 -4 11 -10z m50 0 c3 -5 1 -10 -4 -10 -6 0 -11 5 -11 10 0 6 2 10 4 10 3 0 8
-4 11 -10z m-345 -10 c0 -5 -5 -10 -11 -10 -5 0 -7 5 -4 10 3 6 8 10 11 10 2
0 4 -4 4 -10z m87 -27 c-3 -10 -5 -4 -5 12 0 17 2 24 5 18 2 -7 2 -21 0 -30z
m60 5 c-3 -7 -5 -2 -5 12 0 14 2 19 5 13 2 -7 2 -19 0 -25z m98 22 c3 -5 1
-10 -4 -10 -6 0 -11 5 -11 10 0 6 2 10 4 10 3 0 8 -4 11 -10z m-395 -10 c0 -5
-4 -10 -10 -10 -5 0 -10 5 -10 10 0 6 5 10 10 10 6 0 10 -4 10 -10z m550 6 c0
-3 -4 -8 -10 -11 -5 -3 -10 -1 -10 4 0 6 5 11 10 11 6 0 10 -2 10 -4z m-350
-16 c0 -5 -4 -10 -10 -10 -5 0 -10 5 -10 10 0 6 5 10 10 10 6 0 10 -4 10 -10z
m150 6 c0 -3 -4 -8 -10 -11 -5 -3 -10 -1 -10 4 0 6 5 11 10 11 6 0 10 -2 10
-4z m-390 -26 c0 -5 -4 -10 -10 -10 -5 0 -10 5 -10 10 0 6 5 10 10 10 6 0 10
-4 10 -10z m630 0 c0 -5 -4 -10 -10 -10 -5 0 -10 5 -10 10 0 6 5 10 10 10 6 0
10 -4 10 -10z m-428 -16 c55 -16 58 -18 58 -48 0 -18 5 -37 12 -44 20 -20 -1
-26 -22 -7 -11 10 -20 13 -20 7 0 -21 -50 -5 -71 23 -21 26 -23 26 -36 9 -7
-10 -13 -25 -13 -35 0 -16 -49 -57 -51 -42 0 5 -4 -1 -9 -12 -7 -16 -9 -16 -9
-4 -1 9 -8 30 -16 45 -21 41 -19 71 10 99 29 30 81 33 167 9z m366 0 c18 -12
22 -25 22 -64 0 -27 -4 -52 -10 -55 -5 -3 -10 -16 -11 -28 0 -19 -1 -20 -8 -4
-4 10 -9 18 -11 17 -18 -5 -44 19 -57 53 l-16 40 -25 -29 c-14 -16 -29 -28
-34 -26 -5 1 -18 -2 -28 -8 -16 -9 -20 -7 -20 7 0 15 -2 15 -14 -3 -8 -10 -18
-16 -22 -11 -4 4 -2 13 4 19 7 7 12 26 12 44 0 29 3 32 53 47 69 20 137 21
165 1z m41 -18 c-3 -3 -11 5 -18 17 -13 21 -12 21 5 5 10 -10 16 -20 13 -22z
m-299 -6 c0 -5 -2 -10 -4 -10 -3 0 -8 5 -11 10 -3 6 -1 10 4 10 6 0 11 -4 11
-10z m-330 -4 c0 -3 -4 -8 -10 -11 -5 -3 -10 -1 -10 4 0 6 5 11 10 11 6 0 10
-2 10 -4z m17 -43 c-3 -10 -5 -2 -5 17 0 19 2 27 5 18 2 -10 2 -26 0 -35z
m653 43 c0 -3 -4 -8 -10 -11 -5 -3 -10 -1 -10 4 0 6 5 11 10 11 6 0 10 -2 10
-4z m-33 -43 c-3 -10 -5 -4 -5 12 0 17 2 24 5 18 2 -7 2 -21 0 -30z m-302 17
c3 -5 -1 -10 -10 -10 -9 0 -13 5 -10 10 3 6 8 10 10 10 2 0 7 -4 10 -10z
m-335 -24 c0 -3 -4 -8 -10 -11 -5 -3 -10 -1 -10 4 0 6 5 11 10 11 6 0 10 -2
10 -4z m178 -29 c4 -29 12 -33 29 -16 12 12 33 4 33 -12 0 -5 -11 -14 -24 -19
-30 -11 -25 -46 8 -61 28 -13 76 5 83 31 7 27 17 25 37 -5 31 -48 106 -41 106
10 0 18 -5 25 -20 25 -13 0 -20 7 -20 20 0 21 24 28 35 10 11 -18 24 -10 27
17 2 14 9 29 17 31 11 4 13 -3 8 -32 -6 -35 -5 -36 20 -30 21 6 24 4 21 -12
-2 -13 -12 -19 -28 -19 -20 0 -26 -6 -28 -26 -4 -37 23 -62 62 -56 l31 5 -27
-11 c-31 -12 -33 -19 -18 -48 13 -23 15 -23 -57 -4 -31 8 -74 15 -93 15 -47 0
-54 8 -27 31 22 19 22 19 3 34 -25 19 -50 19 -66 0 -10 -13 -10 -19 4 -33 24
-28 20 -32 -31 -31 -27 0 -42 3 -35 6 17 7 15 50 -3 57 -18 7 -65 -10 -65 -23
0 -24 14 -41 34 -42 12 0 1 -6 -24 -15 -59 -18 -63 -18 -50 5 14 26 13 41 -3
41 -7 0 -22 7 -33 15 -17 13 -16 13 14 2 28 -10 34 -9 51 8 27 27 18 77 -12
73 -15 -2 -23 3 -25 16 -3 15 0 18 20 13 22 -6 24 -4 20 30 -3 27 -1 34 9 31
8 -3 15 -17 17 -31z m492 23 c0 -5 -4 -10 -10 -10 -5 0 -10 5 -10 10 0 6 5 10
10 10 6 0 10 -4 10 -10z m-332 -11 c-2 -6 -8 -10 -13 -10 -5 0 -11 4 -13 10
-2 6 4 11 13 11 9 0 15 -5 13 -11z m-44 -38 c3 -5 -1 -11 -9 -15 -9 -3 -15 0
-15 9 0 16 16 20 24 6z m86 -6 c0 -9 -6 -12 -15 -9 -8 4 -15 10 -15 15 0 5 7
9 15 9 8 0 15 -7 15 -15z m280 11 c0 -3 -4 -8 -10 -11 -5 -3 -10 -1 -10 4 0 6
5 11 10 11 6 0 10 -2 10 -4z m-405 -35 c-3 -5 -1 -12 5 -16 5 -3 10 -1 10 4 0
6 7 11 15 11 18 0 19 -12 3 -28 -12 -12 -68 -17 -68 -7 0 11 25 45 33 45 4 0
6 -4 2 -9z m148 -39 c-14 -2 -33 3 -41 12 -20 19 -8 34 13 16 12 -10 15 -9 15
6 0 16 3 16 20 -6 l19 -25 -26 -3z m-318 18 c3 -5 -1 -10 -10 -10 -9 0 -13 5
-10 10 3 6 8 10 10 10 2 0 7 -4 10 -10z m495 0 c0 -5 -4 -10 -10 -10 -5 0 -10
5 -10 10 0 6 5 10 10 10 6 0 10 -4 10 -10z m-433 -35 c-5 -15 -48 -18 -61 -4
-8 9 -6 10 12 6 19 -4 22 -2 17 14 -6 18 -5 19 14 7 12 -7 20 -17 18 -23z
m388 16 c-5 -16 -2 -18 17 -14 18 4 20 3 8 -6 -35 -25 -78 -1 -44 24 25 19 26
18 19 -4z m-185 -42 c0 -16 -31 -22 -43 -10 -9 9 -9 14 2 20 16 10 41 4 41
-10z m-120 -14 c0 -9 -9 -15 -25 -15 -24 0 -32 10 -18 23 12 13 43 7 43 -8z
m-120 -30 c0 -8 -7 -15 -15 -15 -8 0 -15 7 -15 15 0 8 7 15 15 15 8 0 15 -7
15 -15z m460 0 c0 -8 -7 -15 -15 -15 -8 0 -15 7 -15 15 0 8 7 15 15 15 8 0 15
-7 15 -15z m-85 -72 c284 -71 486 -372 445 -662 -22 -158 -116 -321 -234 -408
-74 -54 -113 -75 -195 -103 -81 -27 -257 -29 -341 -4 -163 48 -306 167 -379
315 -91 186 -92 357 -3 544 126 262 414 392 707 318z"/>
<path d="M1048 1377 c-8 -16 -7 -23 8 -34 26 -19 61 -16 67 6 6 26 -3 37 -36
43 -21 4 -30 0 -39 -15z m60 -14 c2 -8 -6 -13 -22 -13 -17 0 -26 5 -26 16 0
19 41 16 48 -3z"/>
<path d="M952 1258 c-19 -19 -14 -42 14 -67 19 -16 23 -26 15 -34 -7 -7 -17
-5 -32 9 -21 19 -21 19 -18 -1 8 -39 79 -27 79 13 0 9 -12 26 -27 38 -31 25
-24 46 8 26 18 -12 20 -11 17 5 -4 22 -38 29 -56 11z"/>
<path d="M850 1250 c0 -5 4 -10 9 -10 5 0 12 -19 16 -41 7 -39 -2 -58 -27 -59
-13 0 -30 42 -31 75 -1 27 -4 31 -22 27 -21 -4 -21 -4 -4 -54 19 -58 37 -72
72 -59 31 12 40 37 27 80 -5 19 -7 38 -4 42 3 5 -4 9 -15 9 -12 0 -21 -4 -21
-10z"/>
<path d="M1056 1212 c-3 -25 -11 -51 -17 -58 -9 -11 -7 -15 5 -20 27 -11 79
-9 83 2 2 7 -8 9 -28 6 -26 -4 -30 -2 -27 14 3 13 11 18 26 17 14 -2 22 3 22
13 0 8 -6 14 -13 12 -7 -2 -14 0 -15 5 -5 18 -1 27 13 27 8 0 15 -4 15 -10 0
-5 5 -10 10 -10 6 0 10 6 10 14 0 7 -17 18 -39 23 l-39 10 -6 -45z"/>
<path d="M670 1187 c-61 -31 -43 -117 24 -117 38 0 66 25 66 61 0 30 -9 43
-37 58 -26 13 -22 13 -53 -2z m49 -33 c26 -33 27 -50 4 -62 -25 -13 -41 -5
-57 27 -10 18 -11 32 -5 44 14 24 34 21 58 -9z"/>
<path d="M1220 1150 c-11 -11 -20 -30 -20 -43 0 -29 39 -67 68 -67 29 0 62 34
62 65 0 14 -9 34 -20 45 -11 11 -31 20 -45 20 -14 0 -34 -9 -45 -20z m84 -16
c10 -26 -22 -76 -47 -72 -46 6 -25 88 23 88 10 0 21 -7 24 -16z"/>
<path d="M870 1119 c-122 -24 -252 -125 -309 -241 -132 -267 23 -584 317 -647
75 -16 117 -14 202 10 132 36 234 122 293 247 28 59 32 79 35 169 6 155 -36
255 -147 355 -109 98 -246 135 -391 107z m199 -40 c114 -26 215 -109 272 -224
32 -66 34 -75 34 -180 0 -104 -2 -114 -33 -178 -43 -87 -117 -161 -201 -201
-61 -29 -74 -31 -176 -31 -103 0 -114 2 -178 32 -218 103 -303 360 -190 575
90 171 273 252 472 207z"/>
<path d="M1030 817 c-14 -47 -5 -60 18 -29 26 33 141 58 156 33 3 -4 -39 -74
-94 -155 -55 -81 -100 -149 -100 -152 0 -2 65 -4 145 -4 l144 0 10 38 c14 48
14 52 -4 52 -8 0 -15 -4 -15 -10 0 -5 -9 -19 -20 -30 -16 -16 -33 -20 -91 -20
-58 0 -70 3 -66 15 3 8 47 75 97 150 50 75 90 138 88 140 -2 2 -60 5 -130 7
l-126 3 -12 -38z"/>
<path d="M610 842 c0 -4 10 -12 23 -17 21 -10 22 -16 25 -147 2 -130 2 -137
-18 -143 -39 -12 -19 -25 40 -25 33 0 60 3 60 6 0 3 -9 13 -20 22 -19 15 -21
26 -18 119 l3 103 105 -121 c58 -67 108 -126 111 -131 4 -6 12 -7 18 -4 7 5
11 59 11 163 0 146 1 155 20 160 40 11 18 23 -40 23 -58 0 -80 -12 -40 -23 18
-5 20 -13 20 -104 l-1 -98 -70 75 c-39 41 -82 92 -96 113 -24 35 -29 37 -79
37 -30 0 -54 -3 -54 -8z"/>
<path d="M551 1102 c-6 -11 -3 -20 11 -32 19 -15 19 -16 -1 -34 -21 -19 -41
-14 -41 11 0 14 -2 14 -20 -2 -19 -17 -19 -18 13 -39 17 -12 37 -32 43 -44 11
-22 11 -22 28 -3 17 18 16 20 -3 26 -25 8 -27 28 -5 46 14 11 19 10 34 -9 15
-18 20 -19 29 -8 9 10 1 23 -34 58 -38 38 -47 43 -54 30z"/>
<path d="M1356 1038 c-22 -20 -44 -35 -48 -32 -12 8 -9 -11 4 -24 9 -9 16 -8
31 6 18 16 19 16 32 -1 10 -14 15 -15 21 -6 4 7 2 15 -4 17 -17 5 -15 29 4 36
11 4 18 -1 21 -14 3 -11 9 -20 14 -20 16 0 10 21 -13 49 l-23 26 -39 -37z"/>
<path d="M455 891 c-8 -15 3 -31 21 -31 9 0 14 7 12 17 -4 20 -24 28 -33 14z"/>
<path d="M1433 884 c-7 -19 2 -28 22 -21 19 8 19 23 0 31 -9 3 -18 -1 -22 -10z"/>
<path d="M1475 750 c-19 -37 -40 -40 -31 -5 4 14 2 25 -3 25 -16 0 -23 -20
-17 -46 8 -32 50 -33 67 -1 16 29 32 39 41 24 4 -6 -1 -20 -10 -30 -16 -18
-16 -19 3 -16 23 5 32 43 15 65 -20 23 -48 16 -65 -16z"/>
<path d="M370 747 c0 -21 4 -24 28 -20 l27 4 -27 -21 c-37 -29 -39 -58 -2 -34
19 13 28 14 37 5 13 -13 43 -15 51 -3 2 4 7 23 11 42 l6 35 -39 1 c-22 1 -52
4 -66 8 -23 6 -26 3 -26 -17z m108 -29 c-7 -19 -38 -22 -38 -4 0 10 9 16 21
16 12 0 19 -5 17 -12z"/>
<path d="M1430 648 c0 -13 -3 -32 -6 -43 -4 -18 1 -20 48 -23 28 -1 55 -8 59
-14 6 -9 10 -8 14 4 10 26 1 91 -13 96 -11 3 -12 0 -3 -17 14 -26 7 -41 -20
-41 -22 0 -24 11 -7 28 9 9 7 12 -9 12 -16 0 -20 -5 -16 -20 4 -14 0 -20 -11
-20 -20 0 -35 32 -18 38 17 5 15 22 -3 22 -9 0 -15 -9 -15 -22z"/>
<path d="M479 631 c-2 -6 -28 -12 -57 -13 -53 -3 -53 -3 -48 -32 3 -16 6 -35
6 -42 0 -8 10 -14 23 -14 20 1 20 2 5 11 -22 12 -23 35 -2 43 23 9 24 8 24
-14 0 -11 7 -20 16 -20 10 0 13 6 9 19 -3 12 0 21 9 24 21 8 31 -10 16 -28
-10 -12 -9 -15 4 -15 11 0 16 9 16 33 0 34 -15 68 -21 48z"/>
<path d="M1416 554 c-8 -21 -8 -26 3 -20 4 3 19 -6 32 -21 l24 -26 -40 5 c-39
5 -41 4 -60 -36 -28 -56 -28 -57 -18 -54 13 5 83 -40 83 -53 0 -8 4 -8 15 1
15 13 21 45 7 36 -13 -8 -84 44 -79 57 2 7 29 13 65 15 34 2 62 6 62 10 -1 4
-20 28 -44 54 -34 37 -45 44 -50 32z"/>
<path d="M500 522 c0 -14 -77 -45 -90 -37 -9 5 -10 1 -5 -16 10 -31 14 -36 23
-24 12 16 81 45 87 36 7 -13 -22 -34 -36 -25 -7 4 -10 2 -7 -7 6 -20 42 -23
57 -5 9 11 9 22 -3 50 -14 34 -26 46 -26 28z"/>
<path d="M530 394 c-14 -14 -35 -27 -47 -30 -28 -7 -29 -16 -4 -38 17 -16 19
-16 24 4 3 11 10 20 16 20 7 0 7 -8 0 -27 -10 -28 -6 -53 9 -53 5 0 12 14 16
32 3 17 9 28 12 25 11 -11 44 13 44 31 -1 15 -33 63 -42 61 -1 0 -14 -11 -28
-25z m50 -24 c0 -12 -28 -25 -36 -17 -9 9 6 27 22 27 8 0 14 -5 14 -10z"/>
<path d="M1297 349 c-35 -39 -40 -59 -15 -59 6 0 8 3 5 7 -4 3 -2 12 4 19 8
10 18 7 45 -18 18 -17 31 -35 28 -39 -10 -16 13 -9 27 8 12 14 12 17 0 21 -7
2 -28 17 -45 33 -25 24 -28 30 -16 38 8 5 18 7 23 4 5 -3 8 0 5 7 -8 26 -24
20 -61 -21z"/>
<path d="M630 316 c0 -8 -15 -31 -34 -50 l-33 -36 34 -26 c26 -19 38 -23 46
-15 8 8 7 11 -5 11 -24 0 -40 24 -26 38 17 17 28 15 28 -4 0 -14 3 -14 15 -4
8 7 15 16 15 21 0 5 -7 9 -15 9 -18 0 -20 16 -3 26 6 4 17 -1 24 -10 6 -9 15
-13 18 -8 3 5 -5 18 -17 29 -34 31 -47 36 -47 19z"/>
<path d="M1210 265 c0 -7 5 -37 11 -65 10 -48 21 -61 34 -40 3 6 1 10 -4 10
-6 0 -11 7 -11 15 0 23 31 31 44 13 10 -14 14 -14 31 -2 10 8 14 14 8 14 -5 0
-30 16 -54 35 -49 38 -59 42 -59 20z m35 -35 c3 -5 1 -10 -4 -10 -6 0 -11 5
-11 10 0 6 2 10 4 10 3 0 8 -4 11 -10z"/>
<path d="M719 244 c-10 -12 -10 -22 -1 -48 15 -42 15 -46 -3 -46 -8 0 -15 6
-15 14 0 8 -4 18 -10 21 -5 3 -10 -3 -10 -14 0 -28 34 -45 60 -31 24 13 25 32
4 64 -11 18 -12 26 -3 32 7 4 17 0 24 -9 11 -15 25 -13 25 3 0 6 -44 30 -54
30 -2 0 -9 -7 -17 -16z"/>
<path d="M1118 232 c-37 -12 -48 -20 -48 -36 1 -19 2 -19 11 -3 5 9 14 17 18
17 12 0 43 -79 36 -91 -7 -10 6 -12 28 -3 12 4 11 11 -4 42 -26 49 -25 76 1
69 11 -3 20 -1 20 3 0 17 -15 17 -62 2z"/>
<path d="M812 213 c5 -20 -15 -93 -25 -93 -27 0 11 -20 51 -26 36 -6 42 -4 42
12 0 13 -3 15 -11 7 -16 -16 -39 -5 -39 18 0 22 11 24 28 7 9 -9 12 -7 12 10
0 12 -5 21 -12 20 -6 -2 -14 5 -16 15 -4 20 18 23 36 5 9 -9 12 -8 12 4 0 15
-27 28 -62 28 -10 0 -17 -3 -16 -7z"/>
<path d="M1017 168 l5 -43 -36 38 c-21 21 -46 37 -59 37 -16 0 -18 -3 -8 -9 9
-6 12 -24 10 -60 -4 -49 -3 -51 21 -50 14 0 19 3 13 6 -7 2 -13 21 -13 41 l1
37 40 -42 c22 -24 42 -43 44 -43 3 0 4 29 2 65 -1 41 -6 65 -14 65 -7 0 -9
-14 -6 -42z"/>
</g>
</svg>
